<?xml version="1.0"?>
<svg xmlns="http://www.w3.org/2000/svg" viewBox="0 0 50 50" enable-background="new 0 0 50 50">
    <path style="text-indent:0;text-align:start;line-height:normal;text-transform:none;block-progression:tb;-inkscape-font-specification:Bitstream Vera Sans" d="M 31 8 C 31 8 27.634803 7.927697 25.28125 10.28125 A 1.016466 1.016466 0 1 0 26.71875 11.71875 C 28.029896 10.407604 29.637046 10.163797 30.375 10.09375 C 30.577918 10.524775 30.806313 11.000314 30.90625 11.5 A 1.0051139 1.0051139 0 0 0 30.96875 11.71875 C 30.895822 12.17629 30.662328 12.852284 30.1875 13.40625 C 29.7875 13.80625 29.4 14 29 14 C 22.9 14 21.69375 16.90625 21.09375 18.40625 C 20.99375 18.60625 20.90625 18.8 20.90625 19 C 17.70625 19 15.30625 18.1 14.90625 17.5 C 13.50625 15.1 12.4 15 8 15 C 1.1 15 0.1 18.4125 0 18.8125 C -0.1 19.1125 -0.0125 19.3875 0.1875 19.6875 C 0.2875 19.7875 1.50625 21 3.90625 21 L 4.40625 21 C 5.80625 20.4 7.30625 20 8.90625 20 C 15.00625 20 19.90625 24.9 19.90625 31 C 19.90625 31.8 19.79375 32.60625 19.59375 33.40625 C 21.39375 33.90625 23.4125 34 24.3125 34 L 24.5 34 C 26.3 34 28.9 33.50625 30 32.40625 C 30.5 31.90625 30.59375 31.40625 30.59375 30.90625 C 29.722353 24.885688 32.732951 22.154492 34.125 21.21875 C 34.522314 22.12707 34.928196 23.04109 35.375 23.9375 C 33.295815 25.539665 32 28.122029 32 30.90625 C 32 35.90625 36 39.90625 41 39.90625 C 46 39.90625 50 35.90625 50 30.90625 C 50 25.90625 46 22 41 22 C 39.6 22 38.29375 22.30625 37.09375 22.90625 C 37.69375 24.10625 38.39375 25.30625 39.09375 26.40625 C 39.69375 26.20625 40.3 26 41 26 C 43.8 26 46 28.2 46 31 C 46 33.8 43.8 36 41 36 C 38.2 36 36 33.8 36 31 C 36 29.6 36.50625 28.4 37.40625 27.5 C 36.717837 26.418209 36.030797 25.243975 35.4375 23.96875 C 35.930851 23.577475 36.506768 23.199741 37.09375 22.90625 C 36.19375 21.10625 35.2875 19.2125 34.6875 17.3125 C 34.651831 17.223328 34.616118 17.137248 34.5625 17.0625 C 33.758133 14.42409 32.979861 11.167361 32.90625 11.09375 C 32.89512 11.038099 32.864239 10.988058 32.84375 10.9375 C 32.562423 9.7145844 31.875 8.53125 31.875 8.53125 A 1.0001 1.0001 0 0 0 31 8 z M 37.40625 27.5 C 38.60625 29.5 40.0125 31.2875 41.3125 32.6875 C 41.5125 32.8875 41.8 33 42 33 C 42.2 33 42.4875 32.8875 42.6875 32.6875 C 43.0875 32.2875 43.0875 31.7125 42.6875 31.3125 C 41.4875 30.0125 40.2 28.30625 39 26.40625 C 38.4 26.70625 37.90625 27 37.40625 27.5 z M 37.59375 12 C 36.79375 12 36.0125 12.1125 35.3125 12.3125 C 35.9125 14.5125 36.6875 17.3875 37.1875 18.6875 C 37.1875 18.7875 37.3125 18.9 37.3125 19 L 37.59375 19 C 38.89375 19 39.7125 18.6875 40.3125 18.1875 C 41.0125 17.4875 41 16.4875 41 15.6875 L 41 15.5 L 41 15.3125 C 41 14.5125 41.0125 13.5125 40.3125 12.8125 C 39.7125 12.3125 38.89375 12 37.59375 12 z M 9 22 C 4 22 0 26 0 31 C 0 36 4 40 9 40 C 13.6 40 17.40625 36.5 17.90625 32 L 13.90625 32 C 13.40625 34.3 11.4 36 9 36 C 6.2 36 4 33.8 4 31 C 4 28.2 6.2 26 9 26 C 11.4 26 13.40625 27.7 13.90625 30 L 17.90625 30 C 17.40625 25.5 13.6 22 9 22 z M 13.90625 30 L 11.84375 30 C 11.446608 28.815588 10.346848 28 9 28 C 7.3 28 6 29.3 6 31 C 6 32.7 7.3 34 9 34 C 10.346848 34 11.446608 33.184412 11.84375 32 L 13.90625 32 C 14.00625 31.7 14 31.3 14 31 C 14 30.7 14.00625 30.3 13.90625 30 z" overflow="visible" enable-background="accumulate" font-family="Bitstream Vera Sans"/>
</svg>
